<?xml version="1.0" encoding="UTF-8"?>
<svg width="658px" height="400px" viewBox="0 0 658 400" version="1.1" xmlns="http://www.w3.org/2000/svg" xmlns:xlink="http://www.w3.org/1999/xlink">
    <!-- Generator: Sketch 52.3 (67297) - http://www.bohemiancoding.com/sketch -->
    <title>undraw_brainstorming_49d4</title>
    <desc>Created with Sketch.</desc>
    <defs>
        <linearGradient x1="50%" y1="99.9796293%" x2="50%" y2="0%" id="linearGradient-1">
            <stop stop-color="#808080" stop-opacity="0.25" offset="0%"></stop>
            <stop stop-color="#808080" stop-opacity="0.12" offset="54%"></stop>
            <stop stop-color="#808080" stop-opacity="0.1" offset="100%"></stop>
        </linearGradient>
        <linearGradient x1="50%" y1="100%" x2="50%" y2="0%" id="linearGradient-2">
            <stop stop-color="#808080" stop-opacity="0.25" offset="0%"></stop>
            <stop stop-color="#808080" stop-opacity="0.12" offset="54%"></stop>
            <stop stop-color="#808080" stop-opacity="0.1" offset="100%"></stop>
        </linearGradient>
        <linearGradient x1="50%" y1="100%" x2="50%" y2="-1.75274566e-15%" id="linearGradient-3">
            <stop stop-color="#808080" stop-opacity="0.25" offset="0%"></stop>
            <stop stop-color="#808080" stop-opacity="0.12" offset="54%"></stop>
            <stop stop-color="#808080" stop-opacity="0.1" offset="100%"></stop>
        </linearGradient>
        <linearGradient x1="50%" y1="99.9796293%" x2="50%" y2="-1.44742867e-14%" id="linearGradient-4">
            <stop stop-color="#808080" stop-opacity="0.25" offset="0%"></stop>
            <stop stop-color="#808080" stop-opacity="0.12" offset="54%"></stop>
            <stop stop-color="#808080" stop-opacity="0.1" offset="100%"></stop>
        </linearGradient>
        <linearGradient x1="49.9954918%" y1="99.996277%" x2="49.9954918%" y2="7.78618474e-05%" id="linearGradient-5">
            <stop stop-color="#808080" stop-opacity="0.25" offset="0%"></stop>
            <stop stop-color="#808080" stop-opacity="0.12" offset="54%"></stop>
            <stop stop-color="#808080" stop-opacity="0.1" offset="100%"></stop>
        </linearGradient>
        <linearGradient x1="50.0005353%" y1="100.001961%" x2="50.0005353%" y2="0.00198430922%" id="linearGradient-6">
            <stop stop-color="#808080" stop-opacity="0.25" offset="0%"></stop>
            <stop stop-color="#808080" stop-opacity="0.12" offset="54%"></stop>
            <stop stop-color="#808080" stop-opacity="0.1" offset="100%"></stop>
        </linearGradient>
    </defs>
    <g id="Screens" stroke="none" stroke-width="1" fill="none" fill-rule="evenodd">
        <g id="large-mentor" transform="translate(-647.000000, -201.000000)" fill-rule="nonzero">
            <g id="undraw_brainstorming_49d4" transform="translate(647.000000, 201.000000)">
                <path d="M542.992424,265.850534 C606.503793,265.850533 657.992135,317.305212 658,380.782918 L658,382.562278 L427.984848,382.562278 L427.984848,380.782918 C427.992714,317.305212 479.481056,265.850533 542.992424,265.850534 Z" id="Shape" fill="#7509B2"></path>
                <path d="M230.015152,380.782918 L230.015152,382.562278 L0,382.562278 L0,380.782918 C-7.77858053e-15,317.299653 51.4906456,265.836299 115.007576,265.836299 C178.518944,265.850533 230.007286,317.305212 230.015152,380.782918 Z" id="Shape" fill="#7509B2"></path>
                <polygon id="Rectangle-path" fill="url(#linearGradient-1)" points="297.481515 65.7153025 333.586061 65.7153025 333.586061 100.654804 297.481515 100.654804"></polygon>
                <polygon id="Rectangle-path" fill="#F3F3F4" points="298.101061 66.3131673 332.966515 66.3131673 332.966515 100.049822 298.101061 100.049822"></polygon>
                <polygon id="Rectangle-path" fill="url(#linearGradient-2)" points="346.788788 95.8291815 382.893333 95.8291815 382.893333 130.768683 346.788788 130.768683"></polygon>
                <polygon id="Rectangle-path" fill="#F3F3F4" points="347.408333 96.4341637 382.273788 96.4341637 382.273788 130.170819 347.408333 130.170819"></polygon>
                <polygon id="Rectangle-path" fill="url(#linearGradient-1)" points="401.579394 57.5017794 437.683939 57.5017794 437.683939 92.4412811 401.579394 92.4412811"></polygon>
                <polygon id="Rectangle-path" fill="#F3F3F4" points="402.198939 58.0996441 437.064394 58.0996441 437.064394 91.8362989 402.198939 91.8362989"></polygon>
                <polygon id="Rectangle-path" fill="url(#linearGradient-3)" points="346.026818 0.149466192 382.131364 0.149466192 382.131364 35.088968 346.026818 35.088968"></polygon>
                <polygon id="Rectangle-path" fill="#FFA600" points="346.653485 0.754448399 381.518939 0.754448399 381.518939 34.4911032 346.653485 34.4911032"></polygon>
                <polygon id="Rectangle-path" fill="url(#linearGradient-2)" points="291.392879 0 327.497424 0 327.497424 34.9395018 291.392879 34.9395018"></polygon>
                <polygon id="Rectangle-path" fill="#7509B2" points="292.012424 0.604982206 326.877879 0.604982206 326.877879 34.341637 292.012424 34.341637"></polygon>
                <rect id="Rectangle-path" fill="url(#linearGradient-4)" x="242.078485" y="30.1209964" width="36.1045455" height="34.9395018"></rect>
                <polygon id="Rectangle-path" fill="#0070FF" points="242.705152 30.7188612 277.570606 30.7188612 277.570606 64.455516 242.705152 64.455516"></polygon>
                <path d="M228.754697,379.537367 L218.621212,373.921708 C208.010606,368.163701 205.489697,359.992883 205.418485,353.686833 C205.431386,352.620154 205.509867,351.555276 205.653485,350.498221 L219.746364,294.697509 C219.746364,294.697509 235.484242,262.106762 213.565152,252.562278 C196.695,245.209964 156.139697,233.822064 138.386515,229.017794 C142.402879,224.875445 144.995,221.658363 144.995,221.658363 L144.517879,220.55516 L144.995,219.97153 C144.995,219.97153 142.915606,215.231317 140.052879,208.163701 L149.488485,199.743772 C149.488485,199.743772 149.125303,199.679715 148.534242,199.537367 L148.925909,199.181495 C148.925909,199.181495 148.541364,199.11032 147.907576,198.960854 C154.501818,193.209964 169.406515,179.13879 161.850909,175.587189 C154.565909,172.156584 140.736515,183.11032 134.583788,188.498221 C134.078182,188.690391 133.465758,188.918149 132.753636,189.16726 C131.813636,186.55516 130.895,183.907473 130.01197,181.274021 L142.175,162.099644 C142.210606,161.736655 142.23197,161.3879 142.23197,161.053381 C145.984848,155.786477 156.930152,138.989324 148.918788,132.882562 C140.109848,126.149466 131.300909,147.587189 129.976364,150.975089 C129.178788,150.875445 128.680303,150.86121 128.680303,150.86121 C127.797273,152.626335 125.532727,153.928826 123.567273,154.768683 C123.567273,154.597865 123.567273,154.419929 123.567273,154.256228 C123.567273,154.092527 123.567273,153.814947 123.602879,153.601423 C123.789638,151.457298 123.865698,149.304977 123.830758,147.153025 C123.830758,145.879004 123.830758,144.604982 123.731061,143.330961 C123.488939,139.893238 123.239697,135.501779 123.204091,131.672598 C123.204091,128.220641 123.503182,125.537367 124.201061,125.017794 L123.66697,124.419929 C123.730163,124.011134 123.916464,123.631282 124.201061,123.330961 C124.201061,123.330961 123.631364,122.683274 122.705606,121.66548 C124.336364,116.982206 126.864394,110.128114 129.606061,104.213523 L130.19,104.092527 C130.396515,103.66548 130.60303,103.238434 130.809545,102.825623 C140.355679,100.358626 147.73295,92.7838817 149.943193,83.1798109 C152.153435,73.57574 148.828806,63.5407138 141.320455,57.1530249 C141.624526,56.998326 141.907027,56.8045085 142.160758,56.5765125 C143.585,55.2455516 143.691818,53.0177936 143.677576,51.0818505 C143.677576,46.2182681 143.653838,41.3523132 143.606364,36.4839858 C143.606364,34.5978648 143.606364,32.6405694 142.773182,30.9323843 C142.450263,30.2460425 141.986905,29.6350242 141.41303,29.13879 C140.545365,28.0153643 139.158079,27.4203589 137.745606,27.5658363 C136.036515,27.8434164 134.861515,29.3594306 133.700758,30.6476868 C127.471912,37.3570971 117.903611,39.8257448 109.203788,36.9679715 C107.067424,36.2562278 105.023636,35.1743772 102.794697,34.9252669 C100.565758,34.6761566 97.9807576,35.5160142 97.0977273,37.5800712 C96.0865152,39.8790036 97.5107576,42.6476868 96.7131818,45.0320285 C95.175,49.658363 87.3772727,48.8185053 85.0771212,53.1174377 C83.1472727,56.7259786 86.4301515,60.7402135 88.6377273,64.1779359 C92.7751515,70.5836299 93.5157576,78.4982206 95.6663636,85.8007117 C96.5493939,88.8113879 98.9207576,95.3807829 102.260606,98.455516 C102.564684,98.7832407 102.890632,99.0899932 103.236212,99.3736655 C102.619924,101.766181 101.866199,104.121212 100.978788,106.427046 C99.1546443,105.986972 97.2342308,106.193251 95.545303,107.010676 C90.4892424,109.822064 65.1875758,123.302491 63.4998485,158.697509 C63.3859091,161.124555 63.3360606,163.715302 63.350303,166.434164 C63.1793939,203.13879 74.7442424,265.451957 74.7442424,265.451957 C74.7442424,265.451957 76.5815152,263.615658 79.565303,261.103203 C84.1442424,267.715302 98.7925758,277.281139 145.009242,278.377224 L191.653182,280.085409 C191.653182,280.085409 196.709242,283.459075 189.965455,291.323843 C185.543182,296.483986 184.980606,308.405694 185.130152,316.007117 C185.226723,321.161013 184.691014,326.307316 183.535,331.330961 C182.324394,336.590747 180.807576,343.046263 179.760758,346.989324 C179.206691,346.64374 178.671813,346.268335 178.158485,345.864769 L171.414697,390.24911 L171.49303,390.24911 L171.414697,390.790036 C171.414697,390.790036 220.885758,404.83274 235.505606,394.725979 C239.429394,392.014235 240.753939,389.701068 240.604394,387.779359 C241.003182,382.120996 228.754697,379.537367 228.754697,379.537367 Z" id="Shape" fill="url(#linearGradient-5)"></path>
                <path d="M107.010455,90.5266904 C107.010455,90.5266904 104.28303,114.519573 95.5524242,119.430605 C86.8218182,124.341637 121.772727,129.786477 121.772727,129.786477 C121.772727,129.786477 131.592879,98.7046263 138.151515,95.9786477 C144.710152,93.252669 107.010455,90.5266904 107.010455,90.5266904 Z" id="Shape" fill="#FDB797"></path>
                <path d="M130.467727,153.238434 C130.467727,153.238434 139.725303,128.156584 149.018485,135.245552 C158.311667,142.33452 141.377424,164.149466 141.377424,164.149466 L130.467727,153.238434 Z" id="Shape" fill="#FDB797"></path>
                <path d="M79.7575758,253.580071 C79.7575758,253.580071 75.9406061,274.846975 145.23,276.483986 L190.513788,278.120996 C190.513788,278.120996 195.427424,281.395018 188.875909,289.024911 C184.603182,294.007117 184.040606,305.608541 184.18303,312.982206 C184.277052,317.980427 183.758085,322.971336 182.637727,327.843416 C180.95,335.181495 178.635606,344.925267 177.966212,346.284698 C176.876667,348.462633 203.602576,348.462633 203.602576,348.462633 L217.78803,292.291815 C217.78803,292.291815 233.06303,260.661922 211.784848,251.395018 C190.506667,242.128114 130.489091,226.313167 130.489091,226.313167 L79.7575758,253.580071 Z" id="Shape" fill="#4A4A4A"></path>
                <path d="M195.398939,344.647687 C195.398939,344.647687 203.011515,337.822064 205.475455,340.419929 C205.475455,340.419929 197.57803,358.83274 216.677121,369.188612 L226.497273,374.640569 C226.497273,374.640569 247.227121,379.003559 233.041667,388.818505 C218.856212,398.633452 170.845,385.003559 170.845,385.003559 L177.389394,341.921708 C177.389394,341.921708 186.668333,349.558719 195.398939,344.647687 Z" id="Shape" fill="#000000" opacity="0.1"></path>
                <path d="M195.398939,345.19573 C195.398939,345.19573 203.011515,338.370107 205.475455,340.967972 C205.475455,340.967972 197.57803,359.380783 216.677121,369.736655 L226.497273,375.188612 C226.497273,375.188612 247.227121,379.551601 233.041667,389.366548 C218.856212,399.181495 170.845,385.551601 170.845,385.551601 L177.389394,342.469751 C177.389394,342.469751 186.668333,350.099644 195.398939,345.19573 Z" id="Shape" fill="#333333"></path>
                <path d="M121.195909,157.601423 C121.195909,157.601423 127.740303,155.964413 129.378182,152.690391 C129.378182,152.690391 143.563636,153.238434 142.474091,163.594306 L128.288636,185.950178 L121.195909,157.601423 Z" id="Shape" fill="#0070FF"></path>
                <path d="M121.195909,157.601423 C121.195909,157.601423 127.740303,155.964413 129.378182,152.690391 C129.378182,152.690391 143.563636,153.238434 142.474091,163.594306 L128.288636,185.950178 L121.195909,157.601423 Z" id="Shape" fill="#171C21" opacity="0.05"></path>
                <path d="M110.279091,114.519573 C110.279091,114.519573 102.096818,109.067616 97.1831818,111.793594 C92.2695455,114.519573 67.7227273,127.608541 66.0848485,161.935943 C64.4469697,196.263345 76.9945455,263.914591 76.9945455,263.914591 C76.9945455,263.914591 95.545303,245.373665 110.279091,245.921708 C125.012879,246.469751 145.17303,221.380783 145.17303,221.380783 C145.17303,221.380783 123.097273,171.053381 124.400455,155.330961 C124.654263,152.560039 124.697114,149.773851 124.528636,146.996441 C124.037273,139.94306 123.496061,128.704626 124.984394,127.587189 C125.012879,127.608541 113.013636,113.978648 110.279091,114.519573 Z" id="Shape" fill="#000000" opacity="0.1"></path>
                <path d="M110.279091,112.882562 C110.279091,112.882562 102.096818,107.430605 97.1831818,110.156584 C92.2695455,112.882562 67.7227273,125.97153 66.0848485,160.327402 C64.4469697,194.683274 77.0016667,262.291815 77.0016667,262.291815 C77.0016667,262.291815 95.5524242,243.75089 110.286212,244.298932 C125.02,244.846975 145.180152,219.758007 145.180152,219.758007 C145.180152,219.758007 123.104394,169.430605 124.407576,153.708185 C124.661384,150.937263 124.704235,148.151075 124.535758,145.373665 C124.044394,138.320285 123.503182,127.081851 124.991515,125.964413 C125.012879,125.97153 113.013636,112.341637 110.279091,112.882562 Z" id="Shape" fill="#0070FF"></path>
                <path d="M132.105606,191.957295 C132.105606,191.957295 152.294242,172.327402 161.566061,176.690391 C170.837879,181.053381 145.187273,201.772242 145.187273,201.772242 L132.105606,191.957295 Z" id="Shape" fill="#FDB797"></path>
                <path d="M84.0943939,155.964413 C84.0943939,155.964413 90.6387879,210.498221 94.4628788,213.772242 C98.2869697,217.046263 110.286212,232.313167 134.291818,213.772242 L149.545455,200.135231 C149.545455,200.135231 134.811667,197.409253 136.997879,189.231317 C136.997879,189.231317 117.357576,197.409253 114.081818,190.868327 C110.806061,184.327402 118.995455,154.33452 118.995455,154.33452 C118.995455,154.33452 114.630152,127.615658 102.082576,132.519573 C89.535,137.423488 84.0943939,155.964413 84.0943939,155.964413 Z" id="Shape" fill="#000000" opacity="0.1"></path>
                <path d="M83.5460606,155.423488 C83.5460606,155.423488 90.0904545,209.957295 93.9145455,213.231317 C97.7386364,216.505338 109.737879,231.772242 133.743485,213.231317 L149.018485,199.601423 C149.018485,199.601423 134.284697,196.875445 136.470909,188.697509 C136.470909,188.697509 116.830606,196.875445 113.554848,190.33452 C110.279091,183.793594 118.468485,153.800712 118.468485,153.800712 C118.468485,153.800712 114.103182,127.060498 101.555606,131.97153 C89.0080303,136.882562 83.5460606,155.423488 83.5460606,155.423488 Z" id="Shape" fill="#0070FF"></path>
                <path d="M107.010455,91.6156584 C107.010455,91.6156584 107.644242,92.4341637 106.739848,96.797153 C111.439848,102.149466 117.329091,107.978648 125.02,107.978648 C126.978514,107.977928 128.930528,107.753458 130.83803,107.309609 C133.30197,102.185053 135.894091,98 138.115909,97.0747331 C144.653182,94.3202847 107.010455,91.6156584 107.010455,91.6156584 Z" id="Shape" fill="#000000" opacity="0.1"></path>
                <ellipse id="Oval" fill="#FDB797" cx="125.012879" cy="81.2597865" rx="25.6434848" ry="25.6298932"></ellipse>
                <path d="M113.618939,93.0462633 C114.039091,91.0818505 114.38803,88.8113879 113.134697,87.2384342 C112.422576,86.3131673 111.233333,85.8149466 110.400152,84.9893238 C107.494697,82.0569395 110.051212,77.088968 113.035,74.2348754 C119.858027,67.7509124 128.606313,63.6613825 137.959242,62.5836299 C139.540152,62.405694 141.256364,62.2633452 142.424242,61.1601423 C143.848485,59.8647687 143.905455,57.7295374 143.898333,55.8291815 L143.827121,41.6654804 C143.827121,39.8362989 143.827121,37.9359431 143.022424,36.2775801 C142.217727,34.6192171 140.501515,33.2669039 138.692727,33.5587189 C137.033485,33.8291815 135.894091,35.3024911 134.768939,36.5551601 C128.723449,43.0683602 119.435681,45.4648299 110.991212,42.6903915 C108.926061,41.9786477 106.932121,40.9466192 104.760152,40.7117438 C102.588182,40.4768683 100.088636,41.2882562 99.2056061,43.2882562 C98.2228788,45.5231317 99.6043939,48.2064057 98.835303,50.519573 C97.3398485,55.0106762 89.77,54.1921708 87.5410606,58.3487544 C85.6681818,61.8505338 88.8513636,65.7508897 91.0090909,69.088968 C95.0254545,75.2953737 95.744697,82.9893238 97.8312121,90.0782918 C98.935,93.8434164 102.431515,103.338078 107.259697,103.94306 C112.992273,104.697509 112.728788,97.2455516 113.618939,93.0462633 Z" id="Shape" fill="#000000" opacity="0.1"></path>
                <path d="M113.077727,92.4982206 C113.497879,90.5338078 113.846818,88.2633452 112.593485,86.6903915 C111.881364,85.7651246 110.692121,85.2669039 109.858939,84.4412811 C106.953485,81.5088968 109.51,76.5266904 112.515152,73.6797153 C119.338178,67.1957522 128.086465,63.1062224 137.439394,62.0284698 C139.020303,61.8505338 140.736515,61.7081851 141.904394,60.6049822 C143.328636,59.3096085 143.385606,57.1743772 143.378485,55.2740214 L143.307273,41.1103203 C143.307273,39.2811388 143.307273,37.3807829 142.502576,35.7224199 C141.697879,34.0640569 139.981667,32.7117438 138.172879,33.0035587 C136.513636,33.2740214 135.374242,34.747331 134.249091,36 C128.2036,42.5132 118.915833,44.9096697 110.471364,42.1352313 C108.406212,41.4234875 106.412273,40.3914591 104.240303,40.1565836 C102.068333,39.9217082 99.5687879,40.7330961 98.6857576,42.7330961 C97.7030303,44.9679715 99.0845455,47.6512456 98.3154545,49.9644128 C96.82,54.455516 89.2501515,53.6370107 87.0212121,57.7935943 C85.1483333,61.2953737 88.3315152,65.1957295 90.4892424,68.5338078 C94.5056061,74.7402135 95.2248485,82.4341637 97.3113636,89.5231317 C98.4151515,93.2882562 101.911667,102.782918 106.739848,103.3879 C112.443939,104.149466 112.180455,96.6975089 113.077727,92.4982206 Z" id="Shape" fill="#333333"></path>
                <polygon id="Rectangle-path" fill="#FFA600" transform="translate(155.206030, 126.436676) rotate(-12.150000) translate(-155.206030, -126.436676) " points="137.773303 109.568349 172.638757 109.568349 172.638757 143.305004 137.773303 143.305004"></polygon>
                <path d="M599.876667,129.19573 C599.164545,126.163701 597.740303,123.338078 596.714848,120.391459 C595.311089,116.120725 594.590108,111.655416 594.578485,107.160142 C594.578485,99.8576512 595.860303,92.405694 597.035303,85.1601423 C598.010909,79.1316726 598.844091,72.8683274 598.751515,66.7544484 C598.751515,60.3843416 597.761667,54.1565836 594.906061,48.4839858 C591.751364,42.2206406 585.847879,36.86121 578.854848,36.3843416 C572.203636,35.9359431 566.036667,39.8434164 559.485152,40.8896797 C552.933636,41.9359431 546.367879,40.1352313 539.809242,40.6120996 C533.561724,41.0817565 527.639484,43.5813771 522.946212,47.7295374 C519.35,50.9395018 516.494394,55.3594306 516.437424,60.1850534 C516.437424,60.3629893 516.437424,60.5338078 516.437424,60.7046263 C516.437424,60.8754448 516.437424,60.9323843 516.437424,61.0533808 C516.35197,68.4768683 521.984848,71.1245552 528.393939,72.2562278 C527.350927,79.1745042 529.131448,86.2216088 533.335783,91.8154958 C537.540118,97.4093828 543.816009,101.081372 550.754545,102.007117 C551.067879,102.571767 551.371717,103.14828 551.666061,103.736655 C551.737273,104.647687 551.787121,105.558719 551.794242,106.476868 C551.700777,111.444727 550.626267,116.345188 548.632424,120.896797 C547.313607,121.734774 545.89493,122.404283 544.409545,122.88968 L527.916818,142.007117 C526.24415,143.575936 524.777342,145.350478 523.551515,147.288256 C523.000808,147.596679 522.447727,147.897983 521.892273,148.192171 L522.853636,148.441281 L522.775303,148.58363 L521.899394,149.060498 L522.433485,149.202847 C520.556365,152.596267 519.601288,156.421911 519.663333,160.298932 C519.631055,163.930509 520.528251,167.510038 522.269697,170.697509 C523.399475,172.896206 524.377366,175.169608 525.196515,177.501779 L519.663333,186.348754 L500.96303,214.035587 L486.599545,216.740214 C483.38303,216.350605 480.131212,216.350605 476.914697,216.740214 L479.877121,211.153025 C480.119408,210.694305 480.09286,210.140175 479.807828,209.706692 C479.522796,209.273209 479.024408,209.029004 478.506987,209.069292 C477.989565,209.10958 477.53503,209.427984 477.320606,209.900356 L473.368333,217.352313 C468.889091,218.370107 464.203333,220.448399 460.941818,224.569395 C457.381212,229.046263 460.941818,230.562278 466.218636,230.83274 L465.670303,231.857651 C465.427574,232.356651 465.497061,232.951139 465.848333,233.380783 C465.178939,233.565836 464.424091,233.772242 463.71197,234.007117 L451.755455,234.007117 L451.755455,239.66548 C448.330152,242.078292 445.389091,245.209964 443.922121,249.238434 C434.379697,257.323843 433.567879,272.825623 433.567879,272.825623 L403.060606,361.935943 C403.060606,361.935943 402.398333,362.925267 401.401364,364.533808 C393.033939,369.836299 376.370303,390.690391 380.749848,399.309609 L399.108333,390 L399.585455,390.199288 L400.924242,389.081851 L437.954545,370.327402 L429.743788,353.758007 L428.604394,354.185053 C428.269697,352.519573 428.405,350.982206 429.644091,350.206406 C431.659394,348.946619 444.506061,324.441281 454.938636,304.078292 C458.584697,314.967972 466.190152,340.284698 462.622424,352.590747 L461.262273,353.608541 C454.803333,359.658363 443.380909,386.348754 450.288485,393.686833 L468.846364,376.298932 L483.145758,363.252669 L483.423485,362.647687 L497.025,349.836299 L484.505909,336.227758 L482.554697,337.651246 C481.422424,334.30605 479.072424,326.740214 480.083636,324.064057 C481.094848,321.3879 483.743939,294.419929 479.635,275.957295 L482.583182,275.758007 C492.816364,289.11032 505.185909,300.989324 508.789242,301.893238 C509.144068,301.977107 509.512093,301.989207 509.871667,301.928826 C516.878939,303.053381 529.668636,274.939502 529.668636,274.939502 L565.331667,274.939502 C596.729091,270.455516 591.530606,245.224199 585.221212,229.886121 C585.413485,229.978648 585.598636,230.071174 585.776667,230.163701 C585.776667,230.163701 585.705455,229.829181 585.577273,229.19573 L585.776667,229.295374 C583.880997,219.651492 582.905762,209.849499 582.864091,200.021352 C582.841149,193.179221 583.458637,186.349946 584.708485,179.622776 C587.186667,183.964413 591.017879,187.637011 595.888788,188.241993 C598.521704,172.469763 600.087176,156.53799 600.574545,140.55516 C600.574545,139.423488 600.631515,138.291815 600.631515,137.160142 C600.708755,134.484408 600.455222,131.809375 599.876667,129.19573 Z M507.906212,228.227758 L509.764848,226.092527 C518.310303,224.918149 527.126364,223.544484 532.987121,222.192171 C530.965614,224.923618 528.381955,227.190402 525.410152,228.839858 C520.952273,228.58363 514.721212,228.284698 507.906212,228.227758 Z M529.917879,203.274021 L527.916818,208.911032 L524.356212,209.622776 L529.917879,203.274021 Z M469.387576,230.868327 C472.72505,230.748252 476.053347,230.444112 479.357273,229.957295 L479.165,230.120996 C476.486397,230.58713 473.85176,231.277582 471.288939,232.185053 C471.288939,232.185053 470.185152,232.341637 468.440455,232.747331 L469.387576,230.868327 Z" id="Shape" fill="url(#linearGradient-6)"></path>
                <path d="M467.244091,233.160142 C466.918182,233.000757 466.669023,232.718435 466.551484,232.375351 C466.433946,232.032266 466.457667,231.656556 466.617424,231.330961 L477.833333,210.213523 C477.992803,209.887787 478.275275,209.63876 478.618541,209.521284 C478.961808,209.403807 479.337717,209.427516 479.663485,209.587189 C479.989394,209.746574 480.238553,210.028896 480.356091,210.37198 C480.47363,210.715065 480.449909,211.090775 480.290152,211.41637 L469.074242,232.533808 C468.914772,232.859544 468.632301,233.108571 468.289034,233.226047 C467.945768,233.343524 467.569859,233.319815 467.244091,233.160142 Z" id="Shape" fill="#4D8AF0"></path>
                <path d="M472.029545,231.637011 C472.029545,231.637011 441.572121,236.02847 444.919091,256.925267 L454.539848,295.800712 C454.539848,295.800712 468.782273,333.836299 463.320303,348.469751 C463.320303,348.469751 457.886818,371.879004 452.446212,371.039146 C447.005606,370.199288 464.153485,375.217082 464.153485,375.217082 L483.380758,357.658363 L489.227273,344.697509 C489.227273,344.697509 490.900758,340.932384 483.373636,334.669039 C483.373636,334.669039 479.193485,323.380783 480.446818,320.042705 C481.700152,316.704626 485.431667,275.814947 475.212727,261.772242 L472.029545,231.637011 Z" id="Shape" fill="#BE7C5E"></path>
                <path d="M472.029545,231.637011 C472.029545,231.637011 441.572121,236.02847 444.919091,256.925267 L454.539848,295.800712 C454.539848,295.800712 468.782273,333.836299 463.320303,348.469751 C463.320303,348.469751 457.886818,371.879004 452.446212,371.039146 C447.005606,370.199288 464.153485,375.217082 464.153485,375.217082 L483.380758,357.658363 L489.227273,344.697509 C489.227273,344.697509 490.900758,340.932384 483.373636,334.669039 C483.373636,334.669039 479.193485,323.380783 480.446818,320.042705 C481.700152,316.704626 485.431667,275.814947 475.212727,261.772242 L472.029545,231.637011 Z" id="Shape" fill="#000000" opacity="0.1"></path>
                <path d="M451.805303,386.925267 L496.768636,344.797153 L484.726667,331.708185 L462.351818,348.412811 C456.142121,354.227758 445.154091,379.864769 451.805303,386.953737 L451.805303,386.925267 Z" id="Shape" fill="#F5F5F5"></path>
                <path d="M530.651364,228.918149 C530.651364,228.918149 485.488636,224.740214 469.594091,232.683274 C469.594091,232.683274 468.340758,239.373665 475.027576,247.309609 C481.714394,255.245552 530.651364,228.918149 530.651364,228.918149 Z" id="Shape" fill="#333333"></path>
                <path d="M530.651364,228.918149 C530.651364,228.918149 485.488636,224.740214 469.594091,232.683274 C469.594091,232.683274 468.340758,239.373665 475.027576,247.309609 C481.714394,255.245552 530.651364,228.918149 530.651364,228.918149 Z" id="Shape" fill="#000000" opacity="0.3"></path>
                <polygon id="Rectangle-path" fill="#E0E0E0" points="453.236667 233.402135 496.718788 233.402135 496.718788 239.47331 453.236667 239.47331"></polygon>
                <path d="M480.888333,241.459075 C480.888333,241.459075 456.633485,239.786477 446.592576,247.309609 C436.551667,254.83274 435.718485,270.718861 435.718485,270.718861 L406.443182,356.405694 C406.443182,356.405694 397.363636,370.014235 395.989242,378.142349 C395.569091,380.647687 403.110455,383.572954 403.110455,383.572954 L428.618636,362.220641 L433.603485,355.103203 C433.603485,355.103203 428.618636,347.160142 431.93,345.074733 C435.241364,342.989324 469.565606,274.434164 469.565606,274.434164 L513.503485,271.544484 L480.888333,241.459075 Z" id="Shape" fill="#BE7C5E"></path>
                <path d="M574.980909,218.049822 C574.980909,218.049822 605.509545,266.533808 561.600152,272.80427 L527.304394,272.80427 C527.304394,272.80427 514.756818,300.391459 508.077121,298.718861 C501.397424,297.046263 463.327424,256.085409 469.181061,241.451957 L523.131364,228.911032 C523.131364,228.911032 533.165152,224.313167 534.005455,215.117438 L574.980909,218.049822 Z" id="Shape" fill="#000000" opacity="0.1"></path>
                <path d="M575.821212,218.049822 C575.821212,218.049822 606.349848,266.562278 562.433333,272.80427 L528.144697,272.80427 C528.144697,272.80427 515.597121,300.391459 508.917424,298.718861 C502.237727,297.046263 464.160606,256.085409 470,241.459075 L523.950303,228.918149 C523.950303,228.918149 533.984091,224.320285 534.824394,215.124555 L575.821212,218.049822 Z" id="Shape" fill="#333333"></path>
                <path d="M384.98697,392.33452 L439.948485,364.462633 L432.051061,348.533808 L405.909091,358.284698 C398.317879,362.135231 380.593182,383.672598 384.994091,392.33452 L384.98697,392.33452 Z" id="Shape" fill="#F5F5F5"></path>
                <path d="M528.977879,170.818505 L518.523939,187.558719 L493.428788,224.761566 C493.428788,224.761566 472.933939,225.594306 475.447727,241.900356 C477.961515,258.206406 502.209242,233.537367 502.209242,233.537367 L542.800152,187.558719 L528.977879,170.818505 Z" id="Shape" fill="#BE7C5E"></path>
                <path d="M528.977879,170.818505 L518.523939,187.558719 L493.428788,224.761566 C493.428788,224.761566 472.933939,225.594306 475.447727,241.900356 C477.961515,258.206406 502.209242,233.537367 502.209242,233.537367 L542.800152,187.558719 L528.977879,170.818505 Z" id="Shape" fill="#000000" opacity="0.1"></path>
                <ellipse id="Oval" fill="#BE7C5E" cx="551.772879" cy="81.5800712" rx="25.0951515" ry="25.0818505"></ellipse>
                <path d="M539.431818,94.747331 C539.431818,94.747331 561.600152,114.811388 549.052576,135.316726 C536.505,155.822064 580.001364,121.523132 580.001364,121.523132 C580.001364,121.523132 564.947121,96.4199288 568.272727,81.3736655 L539.431818,94.747331 Z" id="Shape" fill="#BE7C5E"></path>
                <path d="M556.166667,115.672598 C556.166667,115.672598 550.31303,124.868327 542.365758,127.373665 L526.471212,145.743772 C526.471212,145.743772 513.090455,157.44484 521.037727,172.491103 C528.985,187.537367 533.585303,224.740214 533.585303,224.740214 C533.585303,224.740214 572.894394,224.740214 582.095,229.72242 C582.095,229.72242 574.147727,193.359431 585.021818,167.857651 C595.895909,142.355872 576.654394,107.252669 576.654394,107.252669 L556.166667,115.672598 Z" id="Shape" fill="#000000" opacity="0.1"></path>
                <path d="M556.166667,114.811388 C556.166667,114.811388 550.31303,124.007117 542.365758,126.512456 L526.471212,144.903915 C526.471212,144.903915 513.090455,156.604982 521.037727,171.651246 C528.985,186.697509 533.585303,223.900356 533.585303,223.900356 C533.585303,223.900356 572.894394,223.900356 582.095,228.882562 C582.095,228.882562 574.147727,192.519573 585.021818,167.017794 C595.895909,141.516014 576.654394,106.419929 576.654394,106.419929 L556.166667,114.811388 Z" id="Shape" fill="#FFA600"></path>
                <path d="M572.474242,156.6121 C572.474242,156.6121 543.619091,216.398577 537.345303,220.142349 C531.071515,223.886121 483.395,228.918149 483.395,228.918149 C483.395,228.918149 454.119697,234.348754 462.031364,224.320285 C469.94303,214.291815 486.706364,216.797153 486.706364,216.797153 L526.435606,209.274021 L549.437121,144.505338 L572.474242,156.6121 Z" id="Shape" fill="#BE7C5E"></path>
                <path d="M559.506515,128.185053 C559.506515,128.185053 536.505,141.978648 541.105303,154.519573 C541.105303,154.519573 567.453788,150.754448 576.654394,168.313167 C576.654394,168.313167 591.288485,152.014235 580.001364,134.455516 C580.001364,134.455516 573.727576,123.16726 559.506515,128.185053 Z" id="Shape" fill="#000000" opacity="0.1"></path>
                <path d="M559.506515,127.352313 C559.506515,127.352313 536.505,141.145907 541.105303,153.686833 C541.105303,153.686833 567.453788,149.921708 576.654394,167.480427 C576.654394,167.480427 591.288485,151.181495 580.001364,133.622776 C580.001364,133.622776 573.727576,122.33452 559.506515,127.352313 Z" id="Shape" fill="#FFA600"></path>
                <path d="M540.435909,78.9822064 C541.190181,78.9474125 541.92625,79.2202806 542.475386,79.7382611 C543.024521,80.2562417 543.339632,80.9749143 543.348485,81.7295374 L546.481818,93.7295374 C547.970152,99.4234875 549.472727,105.217082 549.472727,111.11032 C549.472727,128.548043 536.127576,143.587189 520.674545,151.679715 L536.483636,155.829181 C538.027657,156.34629 539.659554,156.549564 541.283333,156.427046 C542.623447,156.170267 543.897646,155.644878 545.029091,154.882562 C551.751515,150.768683 556.572576,144.064057 559.755758,136.854093 C562.938939,129.644128 564.633788,121.907473 566.314394,114.192171 C571.529304,123.441358 574.73471,133.685458 575.721515,144.256228 C576.782576,155.736655 575.28,167.786477 579.716515,178.419929 C581.91697,183.69395 586.125606,188.718861 591.822576,189.423488 C594.354235,174.263353 595.860226,158.949852 596.330303,143.587189 C596.437121,140.185053 596.479848,136.740214 595.675152,133.430605 C594.96303,130.512456 593.61,127.800712 592.634394,124.960854 C588.845909,113.893238 591.067727,101.793594 592.940606,90.2491103 C594.813485,78.7046263 596.152273,66.2633452 590.889697,55.8149466 C587.856061,49.7935943 582.180455,44.6405694 575.450909,44.1850534 C569.041818,43.7580071 563.152576,47.5088968 556.828939,48.5124555 C550.505303,49.5160142 544.217273,47.8007117 537.915,48.2491103 C531.8928,48.7204053 526.191566,51.1532096 521.685758,55.1743772 C518.224848,58.2633452 515.483182,62.5124555 515.433333,67.1459075 C515.290909,79.5871886 532.011515,78.0213523 540.435909,78.9822064 Z" id="Shape" fill="#333333" opacity="0.1"></path>
                <path d="M540.435909,78.1494662 C541.190181,78.1146723 541.92625,78.3875404 542.475386,78.9055209 C543.024521,79.4235015 543.339632,80.142174 543.348485,80.8967972 L546.481818,92.8967972 C547.970152,98.5907473 549.472727,104.384342 549.472727,110.27758 C549.472727,127.715302 536.127576,142.754448 520.674545,150.846975 L536.483636,154.996441 C538.027657,155.51355 539.659554,155.716824 541.283333,155.594306 C542.623447,155.337527 543.897646,154.812138 545.029091,154.049822 C551.751515,149.935943 556.572576,143.231317 559.755758,136.021352 C562.938939,128.811388 564.633788,121.074733 566.314394,113.359431 C571.532744,122.610207 574.740616,132.856862 575.728636,143.430605 C576.789697,154.911032 575.287121,166.960854 579.723636,177.594306 C581.924091,182.868327 586.132727,187.893238 591.829697,188.597865 C594.361356,173.437731 595.867348,158.12423 596.337424,142.761566 C596.444242,139.359431 596.48697,135.914591 595.682273,132.604982 C594.970152,129.686833 593.617121,126.975089 592.641515,124.135231 C588.85303,113.067616 591.074848,100.967972 592.947727,89.4234875 C594.820606,77.8790036 596.159394,65.4377224 590.896818,54.9893238 C587.863182,48.9679715 582.187576,43.8149466 575.45803,43.3594306 C569.048939,42.9323843 563.159697,46.683274 556.836061,47.6868327 C550.512424,48.6903915 544.224394,46.975089 537.922121,47.4234875 C531.911751,47.8818871 526.216751,50.294167 521.707121,54.2918149 C518.246212,57.3807829 515.504545,61.6298932 515.454697,66.2633452 C515.290909,78.7544484 532.011515,77.1886121 540.435909,78.1494662 Z" id="Shape" fill="#333333"></path>
            </g>
        </g>
    </g>
</svg>